 <svg  version="1.0" xmlns="http://www.w3.org/2000/svg"  width="300.000000pt" height="300.000000pt" viewBox="0 0 300.000000 300.000000"  preserveAspectRatio="xMidYMid meet">  <g transform="translate(0.000000,300.000000) scale(0.050000,-0.050000)" fill="#2f48c9" stroke="none"> <path d="M1593 4351 c-117 -42 -158 -92 -348 -428 -197 -350 -261 -425 -390 -461 l-89 -26 -13 -148 c-28 -333 -184 -504 -482 -527 l-141 -11 0 -184 c1 -313 125 -436 440 -436 l180 0 12 103 c104 836 1373 838 1475 2 l13 -105 750 0 750 0 13 103 c102 836 1372 838 1474 2 l13 -105 210 -5 c330 -9 420 66 420 350 l0 145 -205 0 c-113 0 -238 10 -279 21 -268 74 -360 419 -164 615 38 38 67 71 64 74 -52 41 -694 121 -746 93 -54 -30 -202 -34 -1445 -39 l-1384 -5 -72 65 c-124 114 -118 168 59 574 84 192 152 352 152 355 0 19 -200 2 -267 -22z m1886 -1296 c65 -116 3 -164 -220 -171 -240 -7 -320 60 -227 192 52 75 403 58 447 -21z"/> <path d="M2120 4359 c0 -12 -67 -180 -150 -372 -82 -193 -150 -355 -150 -359 0 -5 209 -6 465 -3 l465 5 0 370 0 370 -315 6 c-218 3 -315 -2 -315 -17z"/> <path d="M3000 4003 l0 -383 625 0 624 0 -159 163 c-520 530 -571 564 -908 589 l-182 14 0 -383z"/> <path d="M415 3332 c-134 -39 -241 -147 -284 -287 -13 -42 -8 -45 83 -45 174 0 295 120 282 278 l-6 76 -75 -22z"/> <path d="M5414 3084 c-109 -120 -18 -204 223 -204 207 0 207 0 116 133 -78 114 -265 153 -339 71z"/> <path d="M1300 2578 c-379 -171 -400 -690 -37 -888 348 -189 772 89 731 480 -27 262 -233 449 -494 449 -68 0 -144 -15 -200 -41z m287 -226 c251 -104 183 -472 -87 -472 -265 0 -336 365 -92 472 79 34 99 34 179 0z"/> <path d="M4300 2578 c-379 -171 -400 -690 -37 -888 348 -189 772 89 731 480 -27 262 -233 449 -494 449 -68 0 -144 -15 -200 -41z m287 -226 c251 -104 183 -472 -87 -472 -265 0 -336 365 -92 472 79 34 99 34 179 0z"/> </g> </svg> 