 <svg  version="1.0" xmlns="http://www.w3.org/2000/svg"  width="300.000000pt" height="300.000000pt" viewBox="0 0 300.000000 300.000000"  preserveAspectRatio="xMidYMid meet">  <g transform="translate(0.000000,300.000000) scale(0.050000,-0.050000)" fill="#2f48c9" stroke="none"> <path d="M2602 5968 c-552 -148 -886 -722 -760 -1307 18 -84 16 -116 -12 -189 -41 -106 -16 -320 54 -471 23 -50 58 -152 78 -226 160 -599 731 -1061 1181 -955 372 88 721 450 869 901 31 93 78 218 106 277 66 144 84 415 33 494 -32 48 -33 62 -5 165 175 648 -156 1083 -984 1295 -212 54 -398 60 -560 16z"/> <path d="M2088 2942 c-61 -57 -368 -194 -682 -304 -544 -193 -774 -660 -848 -1723 -35 -519 -9 -584 273 -674 974 -312 3364 -312 4338 0 282 90 310 159 273 676 -76 1065 -306 1531 -847 1721 -310 108 -621 247 -683 304 -10 9 -44 1 -75 -17 l-57 -34 0 -386 0 -387 -345 -922 c-263 -703 -355 -928 -390 -951 -96 -63 -112 -33 -480 952 l-345 923 0 386 0 385 -57 34 c-31 18 -65 26 -75 17z"/> <path d="M2720 2591 c0 -7 50 -90 111 -184 62 -94 116 -182 121 -195 5 -14 -44 -76 -110 -138 l-119 -114 126 -761 c70 -419 132 -767 139 -773 28 -29 45 50 164 773 l125 760 -122 118 -123 119 127 192 c146 222 146 219 -11 190 -110 -21 -280 -14 -383 14 -25 7 -45 7 -45 -1z"/> </g> </svg> 