 <svg  version="1.0" xmlns="http://www.w3.org/2000/svg"  width="300.000000pt" height="300.000000pt" viewBox="0 0 300.000000 300.000000"  preserveAspectRatio="xMidYMid meet">  <g transform="translate(0.000000,300.000000) scale(0.050000,-0.050000)" fill="#2f48c9" stroke="none"> <path d="M1630 4819 c-600 -38 -872 -120 -660 -196 97 -35 93 -56 -82 -407 -176 -352 -272 -496 -332 -496 -82 0 -38 210 102 493 119 239 135 290 110 355 -67 173 -469 -800 -508 -1228 -19 -207 -36 -286 -101 -460 -170 -454 -204 -731 -86 -686 23 9 26 -1 13 -46 -35 -125 -17 -472 29 -573 244 -537 961 -541 1273 -8 71 123 81 131 129 118 29 -8 634 -15 1343 -15 l1290 0 82 47 c46 26 101 79 123 118 l40 71 14 -102 c77 -560 727 -817 1135 -448 45 41 124 134 176 208 52 74 100 129 107 123 26 -27 111 57 144 143 63 165 3 459 -120 590 -35 36 -57 99 -81 229 -68 369 -198 523 -766 911 -201 138 -517 354 -702 480 -1072 732 -1494 855 -2672 779z m1119 -221 c838 -170 2060 -962 1697 -1100 -58 -22 -2761 187 -2896 224 -154 43 -217 140 -205 317 19 264 121 462 280 539 184 89 734 99 1124 20z m-1776 -2349 c223 -130 271 -456 94 -638 -195 -201 -596 -139 -694 107 -155 387 244 740 600 531z m4342 14 c240 -123 293 -429 112 -642 -248 -289 -727 -109 -727 273 0 316 330 514 615 369z"/> </g> </svg> 