 <svg  version="1.0" xmlns="http://www.w3.org/2000/svg"  width="300.000000pt" height="300.000000pt" viewBox="0 0 300.000000 300.000000"  preserveAspectRatio="xMidYMid meet">  <g transform="translate(0.000000,300.000000) scale(0.100000,-0.100000)" fill="#2f48c9" stroke="none"> <path d="M658 2186 c-128 -46 -202 -128 -243 -269 -9 -31 -17 -57 -18 -57 -1 0 -27 7 -57 15 -77 20 -92 8 -124 -98 -114 -381 -119 -402 -88 -430 35 -32 64 -9 34 26 -15 17 -11 34 42 220 79 273 68 251 117 244 23 -3 46 -10 52 -16 7 -7 -7 -70 -47 -208 -108 -371 -114 -388 -148 -422 -17 -17 -38 -31 -45 -31 -27 0 -63 -48 -63 -83 0 -60 17 -72 118 -75 l89 -4 13 -36 c19 -52 97 -126 155 -145 27 -9 76 -17 110 -17 111 0 222 75 257 172 l10 28 732 0 732 0 12 -33 c34 -94 133 -159 250 -165 66 -4 79 -1 138 28 66 32 115 83 136 141 7 21 18 28 48 33 56 9 63 29 58 150 -5 116 -31 180 -93 234 -57 50 -99 64 -215 69 -162 8 -247 -19 -384 -122 -39 -29 -90 -63 -114 -74 -63 -32 -177 -59 -279 -66 -107 -8 -143 -18 -173 -50 -16 -17 -22 -35 -22 -65 l1 -40 -192 2 -192 3 -3 262 -2 263 282 2 c244 3 283 5 283 18 0 13 -83 15 -673 18 -638 2 -673 1 -670 -15 3 -17 29 -18 371 -21 l367 -2 -2 -263 -3 -262 -189 0 -189 0 -4 53 c-4 77 -37 145 -95 197 -178 160 -453 46 -475 -195 l-6 -60 -62 1 c-34 1 -68 5 -75 9 -21 13 -7 54 25 69 48 22 86 62 111 117 45 102 150 172 268 181 154 13 290 -80 347 -238 22 -60 38 -77 58 -64 10 6 -9 64 -46 143 -28 58 -101 130 -167 162 -116 57 -250 52 -361 -15 -30 -19 -55 -32 -55 -30 0 16 175 596 186 618 26 49 86 107 138 135 l51 27 510 3 c558 3 562 3 618 -56 38 -40 52 -82 77 -232 27 -162 38 -193 82 -220 31 -19 50 -20 394 -20 411 0 394 4 394 -82 0 -49 21 -71 39 -41 8 15 11 15 44 0 75 -36 97 -15 97 89 0 88 -11 114 -46 114 -27 0 -78 -23 -106 -47 -12 -11 -21 -12 -37 -4 -13 7 -141 11 -380 11 -359 0 -360 0 -386 23 -23 19 -29 40 -55 186 -34 191 -55 237 -134 286 l-49 30 -521 2 c-411 2 -529 0 -558 -11z m2232 -579 c0 -35 -3 -66 -6 -70 -9 -8 -55 16 -77 41 -23 25 -11 54 31 76 47 26 52 21 52 -47z m-140 -211 c93 -48 130 -112 137 -241 5 -87 5 -93 -16 -104 -11 -7 -21 -10 -21 -9 -1 2 -3 26 -5 55 -12 154 -139 273 -291 273 -64 0 -147 -35 -193 -81 -52 -52 -79 -111 -87 -187 l-7 -61 -258 0 c-143 1 -271 4 -286 8 -20 5 -29 15 -31 32 -5 44 27 61 135 70 198 18 319 60 438 154 118 92 192 116 345 112 76 -3 115 -8 140 -21z m-2097 -93 l36 -18 -77 0 c-87 0 -134 -20 -189 -77 -64 -66 -92 -184 -63 -265 l10 -28 -20 25 c-11 14 -27 50 -37 80 -13 45 -14 64 -5 107 12 59 57 131 99 158 71 47 176 55 246 18z m2010 0 l36 -18 -77 0 c-90 -1 -138 -21 -194 -83 -49 -55 -71 -116 -66 -188 2 -33 8 -68 12 -79 6 -16 4 -15 -13 5 -31 37 -54 123 -46 173 10 58 52 132 93 163 71 55 179 66 255 27z m-2055 -165 c31 -29 30 -81 -3 -113 -50 -51 -135 -17 -135 54 0 81 77 115 138 59z m2010 0 c49 -47 11 -138 -58 -138 -42 0 -80 39 -80 83 0 78 79 109 138 55z"/> <path d="M672 2039 c-68 -34 -95 -76 -136 -212 -42 -140 -43 -153 -17 -167 13 -6 138 -10 339 -10 296 0 320 1 335 18 14 16 17 44 17 186 0 96 -4 176 -10 187 -10 18 -24 19 -248 19 -221 0 -240 -1 -280 -21z"/> <path d="M1292 2048 c-8 -8 -12 -65 -12 -189 0 -148 3 -180 16 -193 13 -14 50 -16 249 -16 204 0 236 2 250 17 11 10 15 26 12 42 -3 14 -16 86 -28 159 -19 115 -26 137 -50 163 l-27 29 -199 0 c-141 0 -202 -3 -211 -12z"/> <path d="M1942 1488 c2 -75 6 -93 18 -93 12 0 15 17 15 90 0 78 -2 90 -18 93 -16 3 -18 -5 -15 -90z"/> <path d="M2067 1573 c-4 -3 -7 -41 -7 -83 0 -55 4 -81 14 -89 12 -10 17 -8 25 8 12 21 15 129 5 155 -6 16 -26 21 -37 9z"/> <path d="M2195 1567 c-3 -7 -5 -49 -3 -93 2 -62 6 -79 18 -79 12 0 15 17 15 89 0 63 -4 91 -12 93 -7 3 -15 -2 -18 -10z"/> <path d="M970 1490 c0 -20 5 -21 88 -18 69 2 87 6 87 18 0 12 -18 16 -87 18 -83 3 -88 2 -88 -18z"/> <path d="M1342 1493 c3 -16 15 -18 88 -18 69 0 85 3 85 15 0 12 -18 16 -88 18 -81 3 -88 1 -85 -15z"/> </g> </svg> 