 <svg  version="1.0" xmlns="http://www.w3.org/2000/svg"  width="300.000000pt" height="300.000000pt" viewBox="0 0 300.000000 300.000000"  preserveAspectRatio="xMidYMid meet">  <g transform="translate(0.000000,300.000000) scale(0.100000,-0.100000)" fill="#2f48c9" stroke="none"> <path d="M1050 1920 c-69 -10 -192 -32 -275 -49 -230 -45 -316 -57 -522 -70 -80 -5 -139 -13 -148 -21 -19 -16 -93 -246 -101 -315 -9 -73 19 -131 101 -211 59 -58 69 -64 107 -64 36 0 46 -5 75 -39 48 -57 126 -91 206 -91 82 0 145 27 203 86 l42 44 668 0 667 0 44 -46 c59 -61 111 -84 194 -84 80 0 152 32 202 91 l34 39 216 0 c142 0 218 4 222 11 14 21 17 125 5 169 -16 61 -86 126 -198 183 -124 64 -308 126 -452 152 -19 4 -100 34 -179 67 -222 93 -380 146 -473 158 -134 17 -493 11 -638 -10z m230 -47 c0 -5 -17 -37 -38 -73 -44 -75 -18 -70 -232 -40 -74 10 -161 22 -192 26 -64 7 -68 18 -11 27 21 3 91 15 155 27 64 11 157 24 205 29 48 4 94 9 101 10 6 0 12 -2 12 -6z m347 -3 c112 -9 134 -14 293 -72 152 -55 253 -101 238 -109 -7 -4 -46 -11 -86 -14 -69 -7 -72 -7 -72 14 0 25 -55 52 -114 54 -38 2 -40 1 -49 -37 l-10 -39 -110 7 c-61 4 -180 15 -264 26 -85 11 -158 20 -163 20 -18 0 -11 20 30 91 l41 69 77 0 c42 0 127 -4 189 -10z m-1018 -363 c139 -92 125 -290 -25 -363 -43 -21 -64 -26 -103 -22 -97 10 -183 88 -198 182 -13 81 43 181 121 218 60 28 150 21 205 -15z m1808 -13 c126 -73 128 -252 5 -339 -38 -26 -52 -30 -110 -30 -58 0 -73 4 -111 30 -83 56 -113 161 -72 250 52 113 180 153 288 89z"/> <path d="M453 1459 c-68 -20 -108 -107 -81 -177 35 -93 177 -111 230 -30 71 108 -27 243 -149 207z"/> <path d="M2255 1442 c-125 -59 -83 -252 55 -252 59 0 115 43 131 102 8 32 6 46 -10 82 -33 76 -103 102 -176 68z"/> </g> </svg> 