 <svg  version="1.0" xmlns="http://www.w3.org/2000/svg"  width="300.000000pt" height="300.000000pt" viewBox="0 0 300.000000 300.000000"  preserveAspectRatio="xMidYMid meet">  <g transform="translate(0.000000,300.000000) scale(0.050000,-0.050000)" fill="#2f48c9" stroke="none"> <path d="M796 5959 c-138 -73 -185 -161 -193 -362 l-7 -177 -209 0 c-394 0 -387 14 -387 -764 l0 -615 60 -68 60 -68 5 -765 5 -765 45 -17 c121 -45 125 -16 125 802 l0 740 1266 0 c1341 0 1314 -2 1314 93 0 86 -21 87 -1389 87 l-1311 0 0 120 0 120 2820 0 2820 0 0 -120 0 -120 -1326 0 c-1397 0 -1374 2 -1374 -90 0 -91 -20 -90 1314 -90 l1266 0 0 -1790 0 -1789 -58 -66 -59 -65 -2583 0 -2583 0 -59 65 -58 66 0 855 c0 913 -3 944 -99 944 -81 0 -82 -20 -77 -954 l6 -899 54 -81 c35 -53 90 -99 159 -134 l105 -52 2552 0 2552 0 102 51 c63 31 123 81 159 133 l57 83 5 1819 6 1819 59 68 60 68 0 615 c0 778 7 764 -387 764 l-209 0 -7 177 c-22 567 -697 540 -697 -28 l0 -149 -330 0 -330 0 -1 135 c-1 225 -60 339 -209 407 -264 122 -490 -53 -490 -379 l0 -163 -340 0 -340 0 0 163 c0 326 -226 501 -490 379 -149 -68 -208 -182 -209 -407 l-1 -135 -330 0 -330 0 0 151 c0 337 -245 525 -504 388z m275 -188 c78 -78 76 -738 -2 -812 -72 -68 -179 -64 -242 8 -74 87 -73 729 2 804 67 67 175 67 242 0z m1363 1 l56 -48 6 -331 c7 -370 -7 -428 -115 -473 -73 -30 -164 -1 -212 67 -59 84 -41 696 23 771 66 79 160 84 242 14z m1348 22 c68 -52 78 -109 78 -440 0 -365 -16 -417 -139 -444 -178 -39 -226 69 -217 489 l6 325 56 48 c61 52 163 63 216 22z m1389 -23 c75 -75 76 -717 2 -804 -63 -72 -170 -76 -242 -8 -78 74 -80 734 -2 812 67 67 175 67 242 0z m-4568 -668 c29 -505 697 -489 697 16 l0 121 330 0 330 0 0 -97 c0 -248 141 -403 366 -403 174 0 331 138 337 298 1 40 3 99 5 132 l2 60 330 0 330 0 3 -108 c18 -531 707 -515 707 17 l0 101 330 0 330 0 0 -121 c0 -505 668 -521 697 -16 l8 137 207 0 208 0 0 -370 0 -370 -2820 0 -2820 0 0 370 0 370 208 0 207 0 8 -137z"/> <path d="M4625 3575 c-11 -14 -62 -103 -114 -199 -51 -96 -109 -179 -127 -184 -19 -5 -110 -21 -203 -35 -289 -43 -304 -97 -88 -319 l154 -158 -27 -197 c-45 -341 -14 -366 275 -224 l195 95 203 -99 c295 -143 322 -122 273 215 l-31 214 152 153 c222 223 205 277 -97 322 -231 34 -224 29 -313 208 -114 229 -187 289 -252 208z m146 -385 c82 -147 99 -159 239 -179 186 -25 185 -22 59 -154 l-114 -120 12 -119 c7 -65 18 -142 25 -170 l13 -51 -142 71 c-172 87 -151 87 -324 3 l-142 -69 14 171 14 171 -107 109 c-122 123 -118 134 50 156 138 18 181 51 252 191 74 146 63 147 151 -10z"/> <path d="M788 3522 c-147 -90 -148 -93 -148 -630 0 -702 -20 -682 670 -682 683 0 670 -14 670 680 0 682 12 670 -670 670 -415 0 -466 -4 -522 -38z m973 -163 c37 -19 39 -46 39 -469 0 -563 52 -510 -503 -510 l-414 0 -43 54 c-53 67 -55 850 -3 913 33 39 853 50 924 12z"/> <path d="M2484 3527 c-148 -73 -154 -99 -154 -641 0 -695 -19 -676 670 -676 689 0 670 -19 670 676 0 691 17 674 -673 674 -371 -1 -458 -6 -513 -33z m979 -180 c34 -30 37 -72 37 -460 0 -557 49 -507 -500 -507 -549 0 -500 -49 -500 503 0 366 4 429 33 460 48 53 872 56 930 4z"/> <path d="M2927 1877 c-9 -14 -57 -102 -107 -196 l-90 -171 -150 -27 c-386 -68 -405 -106 -172 -341 l151 -152 -31 -208 c-51 -336 -11 -364 292 -212 l180 90 180 -90 c303 -152 343 -124 292 212 l-31 208 151 152 c233 235 214 273 -172 341 l-150 27 -100 190 c-102 195 -189 258 -243 177z m151 -373 c76 -151 93 -163 261 -189 167 -26 166 -23 49 -136 -121 -117 -133 -154 -106 -312 28 -162 27 -162 -119 -88 -67 33 -140 61 -163 61 -23 0 -96 -28 -163 -61 -146 -74 -147 -74 -119 88 27 158 15 195 -106 312 -117 113 -118 110 49 136 168 26 185 38 261 189 32 64 67 116 78 116 11 0 46 -52 78 -116z"/> <path d="M766 1821 c-119 -73 -126 -108 -126 -633 0 -689 -21 -668 673 -668 678 0 667 -11 667 667 0 694 21 673 -672 673 -439 0 -483 -3 -542 -39z m990 -152 c52 -37 71 -894 20 -945 -51 -51 -908 -32 -945 20 -60 86 -45 844 18 907 63 63 821 78 907 18z"/> <path d="M4150 1820 c-122 -80 -130 -121 -130 -630 0 -682 -12 -670 667 -670 694 0 673 -21 673 672 0 695 27 668 -674 668 -440 0 -481 -3 -536 -40z m1001 -169 c63 -63 78 -821 18 -907 -37 -52 -894 -71 -945 -20 -51 51 -32 908 20 945 86 60 844 45 907 -18z"/> </g> </svg> 