 <svg  version="1.0" xmlns="http://www.w3.org/2000/svg"  width="300.000000pt" height="300.000000pt" viewBox="0 0 300.000000 300.000000"  preserveAspectRatio="xMidYMid meet">  <g transform="translate(0.000000,300.000000) scale(0.050000,-0.050000)" fill="#2f48c9" stroke="none"> <path d="M2650 5841 c-211 -50 -339 -257 -289 -468 35 -149 529 -653 639 -653 110 0 604 504 639 653 76 323 -259 583 -554 430 -84 -43 -86 -44 -160 -6 -93 47 -196 63 -275 44z m239 -240 c80 -78 147 -78 221 -1 110 115 277 90 344 -50 50 -105 19 -162 -223 -418 l-220 -231 -200 195 c-305 296 -328 335 -261 464 68 131 227 150 339 41z"/> <path d="M1410 4995 c-50 -43 -709 -1403 -783 -1615 -126 -362 -12 -796 287 -1094 l145 -144 -181 -496 c-241 -658 -245 -664 -499 -705 -270 -43 -427 -173 -358 -296 28 -50 403 -200 1134 -454 316 -111 370 142 95 446 -153 169 -149 212 78 836 l188 517 77 -6 c329 -27 722 168 927 460 117 166 139 232 332 981 76 294 143 535 148 535 6 0 84 -286 175 -635 178 -682 217 -785 367 -965 111 -134 163 -160 219 -109 57 52 49 77 -60 198 -122 135 -166 219 -231 442 -64 223 -64 223 17 213 289 -34 641 234 714 541 64 275 233 430 488 449 161 13 159 15 349 -391 193 -412 209 -470 198 -699 -25 -539 -552 -946 -1066 -824 -95 22 -144 11 -159 -38 -31 -98 65 -144 316 -153 l159 -5 187 -515 c225 -620 229 -663 77 -832 -275 -304 -221 -556 95 -446 761 264 1105 402 1134 453 69 124 -87 254 -359 298 -214 34 -289 106 -369 351 -38 118 -70 153 -133 144 -82 -13 -85 -56 -19 -238 102 -280 203 -371 485 -430 80 -17 152 -37 160 -45 12 -12 -500 -207 -939 -360 -47 -16 -25 27 74 146 212 255 209 340 -39 1017 -100 274 -179 500 -176 501 104 62 108 58 177 -124 74 -198 90 -224 140 -224 94 0 101 72 28 274 l-68 188 145 144 c305 304 415 740 279 1114 -91 250 -711 1531 -768 1585 -80 76 -47 84 -862 -212 l-735 -268 -241 88 c-261 95 -319 94 -319 -3 0 -62 41 -87 275 -170 122 -43 185 -75 185 -95 0 -28 -139 -569 -149 -580 -3 -3 -57 25 -120 63 -191 116 -365 138 -573 73 -70 -22 -127 -37 -128 -35 -54 182 -311 373 -564 421 l-125 23 131 280 c73 154 134 282 136 285 2 2 138 -44 301 -103 312 -113 364 -118 384 -38 18 74 -13 93 -353 215 -352 126 -359 127 -430 66z m3215 -420 l134 -285 -125 -23 c-237 -44 -403 -151 -504 -324 -41 -70 -69 -99 -90 -91 -259 96 -461 83 -671 -44 -63 -38 -117 -66 -120 -63 -15 15 -157 594 -148 603 10 9 1353 506 1380 510 6 1 71 -126 144 -283z m-3113 -531 c153 -78 302 -289 238 -337 -243 -177 -751 27 -660 265 53 140 230 170 422 72z m910 -327 c276 -95 289 -139 174 -576 -167 -634 -329 -847 -727 -950 -774 -202 -1344 568 -989 1336 l81 176 74 -64 c252 -222 591 -228 898 -17 166 114 336 147 489 95z m1484 -9 c117 -39 124 -51 83 -132 -93 -185 -254 -284 -462 -285 -167 -1 -162 -5 -196 127 -58 218 283 390 575 290z m-2570 -1680 c3 -1 -76 -227 -176 -501 -248 -677 -251 -762 -39 -1017 99 -119 121 -162 74 -145 -14 5 -234 84 -490 176 -256 92 -458 174 -450 182 9 9 81 29 161 46 289 61 381 147 496 459 40 111 127 348 192 526 l119 324 54 -23 c29 -13 56 -25 59 -27z"/> <path d="M177 3451 c-28 -61 -3 -97 107 -153 153 -78 224 54 81 151 -96 66 -159 66 -188 2z"/> <path d="M5635 3449 c-145 -98 -71 -229 84 -149 97 49 131 103 101 160 -29 54 -96 50 -185 -11z"/> <path d="M155 3126 c-45 -12 -67 -98 -35 -136 47 -56 236 -40 265 22 41 92 -82 153 -230 114z"/> <path d="M5638 3102 c-41 -33 -44 -43 -23 -90 29 -62 218 -78 265 -22 89 107 -126 207 -242 112z"/> <path d="M258 2772 c-92 -63 -105 -98 -60 -154 70 -87 299 54 237 147 -41 63 -93 64 -177 7z"/> <path d="M5584 2796 c-49 -49 -27 -114 56 -166 97 -61 129 -63 168 -7 64 91 -145 252 -224 173z"/> </g> </svg> 