<?xml version="1.0" standalone="no"?>
<!DOCTYPE svg PUBLIC "-//W3C//DTD SVG 20010904//EN"
 "http://www.w3.org/TR/2001/REC-SVG-20010904/DTD/svg10.dtd">
<svg version="1.0" xmlns="http://www.w3.org/2000/svg"
 width="300.000000pt" height="300.000000pt" viewBox="0 0 300.000000 300.000000"
 preserveAspectRatio="xMidYMid meet">
<metadata>
Created by potrace 1.10, written by Peter Selinger 2001-2011
</metadata>
<g transform="translate(0.000000,300.000000) scale(0.050000,-0.050000)"
fill="#2f48c9" stroke="none">
<path d="M2936 5965 c-17 -19 -67 -102 -112 -185 -190 -353 -187 -558 9 -673
l89 -52 -6 -142 -6 -143 -133 -6 c-183 -8 -176 17 -182 -566 l-5 -508 -320 0
-320 0 -10 856 c-10 882 -11 892 -86 894 -96 1 -94 18 -94 -901 l0 -859 -56 0
c-88 0 -256 -95 -342 -193 -133 -151 -142 -201 -142 -821 l0 -546 -50 0 c-167
0 -381 -148 -469 -324 l-61 -122 0 -547 0 -547 -289 0 c-321 0 -351 -11 -351
-126 1 -153 135 -338 300 -412 142 -65 5258 -65 5400 0 165 74 299 259 300
412 0 115 -30 126 -351 126 l-289 0 0 547 0 547 -61 122 c-88 176 -302 324
-469 324 l-50 0 0 546 c0 620 -9 670 -142 821 -86 98 -254 193 -342 193 l-56
0 0 531 c0 562 -7 609 -90 609 -76 0 -79 -22 -90 -590 l-10 -540 -320 0 -320
0 -5 508 c-7 589 2 562 -187 562 l-138 0 0 158 c0 150 2 158 48 170 78 19 167
122 182 210 31 187 -196 702 -310 702 -19 0 -48 -16 -64 -35z m142 -368 c101
-202 63 -357 -88 -357 -145 0 -175 160 -68 360 79 148 81 148 156 -3z m162
-1107 l0 -90 -240 0 -240 0 0 90 0 90 240 0 240 0 0 -90z m0 -350 l0 -80 -240
0 -240 0 0 80 0 80 240 0 240 0 0 -80z m-10 -360 l0 -90 -230 0 -230 0 -6 67
c-12 123 -8 125 241 119 l225 -6 0 -90z m1174 -326 c181 -106 237 -261 121
-336 -41 -26 -115 -108 -165 -182 -199 -295 -274 -296 -456 -5 -210 337 -453
332 -685 -13 -182 -271 -253 -271 -439 1 -175 255 -296 309 -481 216 -74 -38
-89 -54 -89 -103 0 -83 53 -111 128 -67 116 69 195 28 311 -164 219 -360 473
-353 716 19 160 244 238 241 413 -16 245 -357 469 -359 702 -4 138 210 142
201 135 -271 l-5 -399 -1610 0 -1610 0 -5 399 c-7 472 -3 481 135 271 167
-254 326 -319 512 -210 101 59 127 116 77 171 -44 49 -71 49 -134 -1 -114 -90
-179 -56 -335 176 -49 74 -124 156 -165 182 -140 90 -12 311 220 382 30 10
631 16 1335 14 l1280 -4 94 -56z m564 -1559 c158 -90 260 -279 165 -302 -84
-22 -172 -112 -307 -317 -245 -373 -369 -371 -621 8 -168 252 -254 320 -420
331 -205 14 -265 -34 -559 -453 -174 -248 -308 -218 -536 118 -186 274 -262
330 -450 330 -188 0 -266 -57 -444 -325 -253 -380 -375 -382 -620 -11 -136
206 -224 297 -309 319 -95 23 7 212 165 302 l78 44 1890 0 1890 0 78 -44z
m-2586 -510 c36 -30 112 -127 168 -215 116 -179 241 -303 324 -321 31 -6 72
-15 92 -19 152 -30 318 87 483 340 239 368 383 368 620 1 116 -180 242 -304
325 -322 31 -6 72 -15 92 -19 147 -29 302 76 459 310 115 172 214 283 238 268
9 -6 17 -194 17 -419 l0 -409 -231 0 c-250 0 -309 -16 -309 -87 0 -90 17 -93
594 -93 583 0 578 1 506 -99 -91 -129 85 -121 -2760 -121 -2343 0 -2590 3
-2652 32 -67 32 -148 123 -148 166 0 16 582 22 2066 22 2155 0 2114 -2 2114
83 0 101 71 97 -1821 97 l-1759 0 0 420 c0 231 7 420 16 420 28 0 136 -126
239 -280 157 -234 312 -339 459 -310 20 4 61 13 92 19 83 18 209 142 325 322
178 276 306 336 451 214z"/>
<path d="M1811 3049 c-56 -57 -19 -149 60 -149 73 0 109 85 59 140 -44 48 -77
51 -119 9z"/>
<path d="M2952 3054 c-75 -55 5 -191 83 -142 67 42 41 168 -35 168 -7 0 -28
-12 -48 -26z"/>
<path d="M4070 3040 c-50 -55 -14 -140 59 -140 79 0 116 92 60 149 -42 42 -75
39 -119 -9z"/>
<path d="M1421 1391 c-57 -68 21 -184 94 -139 71 45 46 168 -35 168 -19 0 -46
-13 -59 -29z"/>
<path d="M2941 1391 c-57 -68 21 -184 94 -139 71 45 46 168 -35 168 -19 0 -46
-13 -59 -29z"/>
<path d="M4461 1391 c-57 -68 21 -184 94 -139 71 45 46 168 -35 168 -19 0 -46
-13 -59 -29z"/>
<path d="M1784 5936 c-42 -42 -31 -251 15 -275 77 -42 141 23 141 143 0 119
-91 197 -156 132z"/>
<path d="M2161 5748 c-93 -78 -110 -121 -72 -179 44 -68 83 -61 173 29 141
141 50 277 -101 150z"/>
<path d="M1373 5767 c-37 -38 -9 -126 58 -185 101 -88 189 -75 189 28 0 91
-191 212 -247 157z"/>
<path d="M2235 5378 c-40 -23 -46 -99 -11 -134 31 -31 221 -31 252 0 101 101
-103 215 -241 134z"/>
<path d="M1229 5365 c-92 -63 -22 -165 111 -165 135 0 187 53 139 141 -21 40
-201 57 -250 24z"/>
<path d="M4084 5316 c-36 -36 -31 -227 7 -265 76 -75 158 13 144 153 -12 124
-85 178 -151 112z"/>
<path d="M4453 5120 c-82 -72 -99 -123 -60 -179 42 -59 82 -51 169 37 147 146
46 278 -109 142z"/>
<path d="M3673 5147 c-37 -38 -9 -126 58 -185 101 -88 189 -75 189 28 0 91
-191 212 -247 157z"/>
<path d="M1436 5003 c-127 -119 -56 -270 80 -169 106 79 135 137 97 195 -46
69 -80 64 -177 -26z"/>
<path d="M2104 5056 c-70 -70 58 -245 169 -233 92 11 91 112 -3 194 -75 67
-126 79 -166 39z"/>
<path d="M4531 4749 c-78 -79 -22 -149 119 -149 110 0 150 24 150 90 0 89
-195 132 -269 59z"/>
<path d="M3525 4747 c-40 -16 -30 -123 14 -146 91 -49 261 -9 261 62 0 83
-157 131 -275 84z"/>
<path d="M3738 4382 c-85 -84 -95 -122 -47 -171 90 -89 303 116 218 210 -51
56 -84 49 -171 -39z"/>
<path d="M4404 4436 c-70 -70 58 -245 169 -233 92 11 91 112 -3 194 -75 67
-126 79 -166 39z"/>
</g>
</svg>
