<?xml version="1.0" standalone="no"?>
<!DOCTYPE svg PUBLIC "-//W3C//DTD SVG 20010904//EN"
 "http://www.w3.org/TR/2001/REC-SVG-20010904/DTD/svg10.dtd">
<svg version="1.0" xmlns="http://www.w3.org/2000/svg"
 width="532.000000pt" height="297.000000pt" viewBox="0 0 532.000000 297.000000"
 preserveAspectRatio="xMidYMid meet">
<metadata>
Created by potrace 1.16, written by Peter Selinger 2001-2019
</metadata>
<g transform="translate(0.000000,297.000000) scale(0.100000,-0.100000)"
fill="#000000" stroke="none">
<path d="M2360 2249 c-96 -8 -284 -41 -409 -70 -108 -26 -455 -147 -426 -149
6 0 100 -7 210 -15 110 -8 319 -18 465 -21 l265 -7 248 123 c136 68 247 126
247 130 0 19 -427 25 -600 9z"/>
<path d="M3342 2208 c-182 -15 -397 -104 -504 -209 -53 -52 -58 -60 -48 -79
40 -75 401 -132 1070 -170 211 -12 223 -14 215 -40 -9 -30 13 -33 40 -6 14 14
39 33 55 41 41 21 53 47 34 74 -19 26 -65 51 -96 51 -17 -1 -13 -4 15 -14 37
-14 81 -45 73 -53 -2 -2 -20 6 -40 18 -32 19 -40 20 -67 9 -17 -7 -34 -21 -38
-32 -5 -14 -36 20 -149 166 -143 186 -178 219 -242 231 -73 13 -238 20 -318
13z"/>
<path d="M1048 2000 c-135 -8 -282 -33 -293 -50 -3 -5 15 -63 40 -128 40 -101
50 -120 75 -129 20 -7 30 -20 35 -42 9 -40 29 -49 64 -28 24 14 64 15 343 10
l316 -6 24 24 c20 20 32 24 76 21 29 -2 52 -7 52 -13 0 -26 59 -1 211 88 l65
38 -43 1 c-48 1 -106 35 -208 124 -33 28 -72 58 -86 65 -22 12 -421 38 -507
33 -15 0 -89 -4 -164 -8z m628 -256 c-3 -9 -6 -21 -6 -28 0 -7 -9 -22 -20 -33
-19 -21 -20 -21 -55 -3 -59 30 -192 43 -375 37 -193 -7 -263 -21 -268 -54 -4
-29 -32 -30 -32 -2 0 11 -5 30 -11 41 -7 12 -7 24 -2 29 15 15 216 26 507 28
241 1 268 -1 262 -15z"/>
<path d="M1848 1907 c9 -11 40 -16 122 -19 60 -2 114 -8 120 -14 8 -8 -3 -9
-37 -3 -71 12 -165 11 -158 -1 3 -5 27 -10 53 -11 26 -1 58 -5 72 -9 21 -7 18
-8 -20 -10 -41 -2 -43 -2 -17 -10 44 -13 197 33 197 59 0 18 -40 24 -190 29
-136 4 -153 2 -142 -11z"/>
<path d="M3020 1658 c-104 -13 -213 -72 -294 -159 -36 -39 -66 -75 -66 -79 0
-4 -26 3 -57 16 -77 31 -143 31 -240 -2 -43 -15 -79 -28 -81 -29 -2 -2 4 -28
13 -60 9 -31 14 -59 11 -62 -5 -6 -15 15 -41 87 l-12 35 -814 -4 c-447 -2
-823 -7 -834 -12 -14 -5 0 -8 44 -8 46 -1 62 -4 58 -13 -3 -7 -22 -51 -42 -98
-20 -47 -40 -95 -45 -107 -7 -17 -18 -23 -41 -23 -22 0 -32 -5 -36 -19 -3 -11
-20 -23 -44 -30 -44 -13 -50 -27 -16 -41 12 -5 261 -13 552 -18 l530 -9 -527
-1 c-482 -2 -600 -8 -488 -26 22 -3 49 -15 60 -26 27 -27 26 -75 -2 -95 -21
-15 -24 -14 -40 5 -10 12 -19 16 -23 10 -3 -5 -17 -10 -31 -10 -24 0 -24 -1
-10 -28 8 -15 27 -34 42 -42 15 -8 39 -27 53 -41 18 -18 49 -31 100 -42 40
-10 79 -17 85 -17 6 0 36 -24 66 -53 64 -61 101 -80 206 -107 91 -24 195 -25
282 -5 84 20 133 46 173 93 l34 39 584 -13 c577 -13 584 -13 607 -35 40 -37
116 -52 299 -56 l170 -4 -40 19 c-115 54 -187 229 -187 458 0 104 4 131 27
200 30 89 54 134 99 182 50 54 80 66 136 52 137 -33 230 -224 232 -480 1 -100
-4 -139 -28 -222 -4 -13 0 -18 15 -18 12 0 21 7 21 15 0 32 37 35 357 32 l318
-2 -317 -3 c-175 -1 -318 -6 -318 -10 0 -5 204 -8 453 -6 314 2 451 6 450 13
-2 6 0 11 5 11 15 0 29 -16 35 -41 10 -38 48 -91 85 -116 76 -51 246 -53 325
-4 44 27 101 133 117 218 19 96 9 313 -19 391 -50 146 -125 202 -210 158 -64
-34 -133 -148 -166 -276 -21 -82 -30 -90 -22 -22 6 50 5 53 -15 50 -16 -2 -23
3 -27 20 -5 20 -9 16 -30 -28 -21 -44 -28 -51 -50 -48 -23 3 -26 8 -29 50 -3
44 -1 47 30 62 18 8 42 17 53 19 15 4 13 5 -7 6 -15 0 -30 -3 -33 -9 -3 -5
-13 -10 -21 -10 -11 0 -14 19 -14 95 0 52 3 95 6 95 33 0 94 -26 102 -43 9
-19 11 -19 11 -4 2 47 -31 67 -134 81 -132 19 -403 37 -621 43 -248 6 -251 6
-272 -15 -13 -13 -22 -35 -22 -53 l0 -31 27 33 27 32 226 -7 c246 -7 598 -25
618 -31 15 -5 17 -180 3 -190 -5 -3 -31 -1 -57 5 -90 20 -360 59 -483 70 -215
18 -257 2 -291 -109 -23 -76 -10 -70 15 6 25 77 37 83 185 83 135 0 286 -15
503 -51 l137 -23 0 -49 0 -49 -87 7 c-49 3 -160 13 -248 20 -88 8 -214 17
-280 21 -111 6 -124 5 -162 -14 -44 -23 -63 -42 -41 -42 7 0 184 -7 393 -15
209 -8 409 -15 445 -15 49 0 61 -3 52 -12 -9 -9 -102 -9 -409 0 -219 7 -437
12 -485 12 l-88 0 0 38 c0 159 -73 324 -168 379 -58 34 -142 30 -225 -12 -64
-33 -94 -61 -164 -155 -62 -84 -79 -86 -146 -23 -29 27 -65 58 -80 70 -27 21
-28 23 -13 45 42 60 126 132 195 166 65 32 84 37 166 40 133 6 209 -21 319
-112 50 -40 50 -40 25 -7 -13 18 -45 48 -71 67 -97 72 -194 97 -318 82z m1862
-295 c55 -59 83 -155 94 -319 15 -224 -52 -384 -160 -384 -116 0 -196 274
-152 521 17 94 38 140 82 179 47 40 100 41 136 3z m-3429 -105 c-3 -29 -11
-69 -17 -88 l-11 -35 -293 -9 c-161 -4 -296 -6 -299 -2 -5 4 11 113 23 158 5
19 23 20 451 26 l152 2 -6 -52z m1242 -38 c108 0 175 -4 170 -9 -16 -15 -245
-23 -585 -22 -450 1 -468 1 -539 0 -35 0 -71 3 -80 6 -14 6 -14 8 4 22 18 13
71 14 435 9 228 -3 496 -6 595 -6z m-1367 -126 c141 -4 172 -7 172 -19 0 -13
-26 -15 -152 -15 -273 0 -564 12 -537 23 47 18 125 25 234 21 61 -3 188 -7
283 -10z m1395 -77 c-4 -8 -37 -53 -73 -101 -54 -73 -71 -88 -104 -97 -29 -8
-127 -6 -365 6 -179 8 -342 18 -361 22 -54 9 -80 26 -150 98 -36 37 -56 63
-45 57 11 -6 43 -34 70 -62 82 -84 65 -81 471 -98 199 -8 372 -12 386 -9 17 5
48 39 94 102 38 52 73 95 77 95 4 0 4 -6 0 -13z m-1097 -58 c36 -34 48 -68 33
-96 -10 -19 -21 -23 -57 -23 -38 0 -43 2 -37 18 22 50 12 122 -17 122 -6 0 -4
-8 5 -18 10 -10 17 -27 17 -38 0 -26 -27 -64 -46 -64 -8 0 -12 -4 -9 -10 10
-16 -12 -12 -29 6 -21 20 -20 83 0 113 15 20 23 23 66 19 33 -4 57 -13 74 -29z
m2773 5 c40 -4 59 -9 50 -14 -7 -4 -224 -5 -481 -2 -358 4 -468 8 -468 17 0
10 94 11 418 8 229 -2 446 -6 481 -9z"/>
</g>
</svg>
