 <svg  version="1.0" xmlns="http://www.w3.org/2000/svg"  width="300.000000pt" height="300.000000pt" viewBox="0 0 300.000000 300.000000"  preserveAspectRatio="xMidYMid meet">  <g transform="translate(0.000000,300.000000) scale(0.050000,-0.050000)" fill="#2f48c9" stroke="none"> <path d="M1090 3921 c-111 -26 -173 -87 -332 -325 l-159 -236 -204 0 c-352 0 -395 -55 -395 -504 0 -420 52 -494 363 -512 86 -5 157 -17 157 -26 0 -9 28 -49 63 -88 194 -221 516 -212 710 20 l75 90 1685 0 1684 0 41 -67 c163 -263 584 -270 754 -13 45 68 60 76 160 86 257 26 308 111 308 510 0 488 -18 504 -570 504 -444 1 -388 -23 -564 240 -160 239 -193 273 -300 311 -83 30 -3355 40 -3476 10z m600 -361 l0 -190 -78 -10 c-91 -12 -134 -61 -100 -115 21 -33 151 -36 2132 -45 1748 -8 2116 -15 2143 -37 55 -46 39 -80 -40 -87 -143 -12 -143 -140 0 -152 l73 -6 0 -168 c0 -192 -22 -230 -131 -230 -62 0 -69 6 -69 56 0 246 -304 465 -560 404 -188 -45 -360 -238 -360 -404 l0 -56 -1647 0 -1647 0 -24 107 c-109 487 -816 476 -899 -14 l-14 -83 -112 -6 c-159 -8 -177 15 -177 226 l0 168 73 6 c143 12 143 140 0 152 -79 7 -95 41 -40 87 25 21 152 29 543 37 457 9 512 14 532 45 49 78 -5 105 -220 110 -272 8 -266 1 -150 173 159 235 158 234 490 228 l282 -6 0 -190z m1030 0 l0 -201 -425 6 -425 5 -6 195 -5 195 430 0 431 0 0 -200z m1036 5 l-6 -195 -420 0 -420 0 -6 195 -5 195 431 0 431 0 -5 -195z m772 172 c52 -23 278 -344 257 -365 -6 -7 -199 -12 -428 -12 l-417 0 0 200 0 200 269 0 c158 0 290 -9 319 -23z m-3481 -945 c251 -105 209 -493 -58 -544 -101 -18 -242 40 -291 119 -152 250 83 537 349 425z m4220 1 c247 -104 227 -459 -31 -537 -329 -98 -501 396 -186 536 78 34 136 34 217 1z"/> <path d="M1531 2869 c-39 -40 -39 -78 1 -118 56 -56 3003 -37 3040 20 23 35 23 47 -3 85 l-31 44 -1488 0 c-1325 0 -1491 -3 -1519 -31z"/> <path d="M873 2583 c-43 -47 -42 -69 7 -113 55 -50 140 -14 140 59 0 82 -91 116 -147 54z"/> <path d="M5101 2591 c-57 -68 21 -184 94 -139 71 45 46 168 -35 168 -19 0 -46 -13 -59 -29z"/> </g> </svg> 