 <svg  version="1.0" xmlns="http://www.w3.org/2000/svg"  width="300.000000pt" height="300.000000pt" viewBox="0 0 300.000000 300.000000"  preserveAspectRatio="xMidYMid meet">  <g transform="translate(0.000000,300.000000) scale(0.050000,-0.050000)" fill="#2f48c9" stroke="none"> <path d="M1132 5198 c-126 -155 -212 -279 -211 -305 0 -26 101 -158 261 -338 154 -175 249 -299 234 -303 -1160 -339 -1734 -1563 -1235 -2629 488 -1043 1777 -1401 2764 -769 53 34 57 34 110 0 1292 -827 2938 57 2932 1576 -5 1515 -1715 2410 -2952 1545 -27 -20 -43 -20 -70 -1 -111 77 -334 190 -461 232 -179 60 -189 29 108 369 136 156 248 300 248 320 0 20 -96 155 -214 300 l-214 265 -543 0 -544 0 -213 -262z m428 78 c0 -13 -20 -85 -44 -160 l-44 -136 -136 0 c-164 0 -164 -10 -13 172 118 143 237 205 237 124z m455 -1 c11 -14 36 -74 55 -135 20 -60 40 -121 45 -135 7 -19 -46 -25 -225 -25 -179 0 -232 6 -225 25 5 14 29 86 54 160 l44 135 116 0 c69 0 124 -10 136 -25z m429 -110 c158 -197 159 -185 -2 -185 l-140 0 -41 137 c-74 247 6 268 183 48z m-887 -597 c46 -128 83 -240 83 -250 0 -10 -94 89 -210 221 -248 283 -241 261 -83 261 l128 0 82 -232z m543 216 c0 -8 -35 -119 -77 -245 -111 -333 -152 -330 -274 16 l-87 245 219 0 c120 0 219 -7 219 -16z m438 -19 c-80 -103 -385 -445 -391 -439 -5 6 94 318 142 449 7 17 55 25 143 25 124 0 131 -2 106 -35z m-218 -687 c1058 -269 1592 -1492 1074 -2464 -117 -219 -131 -230 -211 -147 l-64 66 79 138 c181 317 232 629 102 629 -53 0 -77 -40 -119 -205 -41 -160 -149 -395 -181 -395 -78 0 -220 464 -220 720 0 259 142 720 221 720 36 0 157 -284 192 -450 46 -217 93 -263 175 -173 31 35 31 48 1 195 -222 1084 -1460 1575 -2362 936 -133 -95 -158 -131 -126 -189 31 -59 108 -47 214 34 386 297 979 344 1408 113 l92 -50 -88 -143 c-372 -604 -372 -1404 2 -1985 l88 -137 -73 -43 c-1119 -667 -2459 708 -1793 1838 91 154 86 234 -14 234 -84 0 -254 -331 -308 -599 -247 -1218 1008 -2191 2136 -1657 l176 83 69 -67 70 -68 -95 -59 c-714 -446 -1723 -249 -2239 436 -968 1288 231 3086 1794 2689z m2211 2 c1574 -403 1743 -2601 250 -3231 -1484 -626 -2929 961 -2172 2385 121 229 119 227 203 143 l71 -71 -60 -94 c-713 -1125 368 -2589 1664 -2253 356 92 754 367 694 480 -34 63 -106 50 -214 -40 -418 -348 -1052 -413 -1491 -151 l-73 43 88 137 c374 581 374 1381 2 1985 l-88 143 92 50 c1117 602 2353 -606 1810 -1769 -129 -275 14 -372 151 -101 664 1317 -793 2724 -2080 2008 l-93 -51 -75 71 -76 71 136 76 c383 214 843 276 1261 169z"/> </g> </svg> 