 <svg  version="1.0" xmlns="http://www.w3.org/2000/svg"  width="300.000000pt" height="300.000000pt" viewBox="0 0 300.000000 300.000000"  preserveAspectRatio="xMidYMid meet">  <g transform="translate(0.000000,300.000000) scale(0.050000,-0.050000)" fill="#2f48c9" stroke="none"> <path d="M2280 3865 c-434 -17 -974 -152 -1390 -345 -242 -113 -294 -115 -358 -19 -66 99 -68 96 38 84 155 -18 91 117 -68 142 -212 34 -482 39 -482 9 0 -45 67 -96 143 -109 49 -8 84 -34 132 -98 85 -114 83 -121 -35 -135 -138 -17 -140 -19 -140 -164 0 -205 -34 -335 -82 -309 -42 22 -61 -324 -20 -350 11 -6 25 -38 32 -71 37 -170 334 -254 650 -183 161 35 163 38 125 152 -93 282 140 591 445 590 416 0 620 -444 355 -774 l-68 -85 458 0 c252 0 946 -6 1542 -13 l1084 -14 -52 101 c-234 451 248 889 676 614 208 -134 262 -478 104 -666 l-48 -57 114 -12 c382 -39 664 54 506 166 -52 38 -56 48 -40 106 99 344 -142 644 -575 717 -75 12 -176 43 -226 68 -108 55 -168 63 -620 91 l-350 21 -310 163 c-428 225 -471 245 -630 292 -213 63 -607 101 -910 88z"/> <path d="M1103 2917 c-211 -104 -261 -384 -102 -565 224 -255 639 -96 639 246 0 280 -279 446 -537 319z"/> <path d="M4873 2852 c-164 -61 -271 -233 -245 -397 48 -302 418 -426 627 -210 269 280 -21 740 -382 607z"/> </g> </svg> 