 <svg  version="1.0" xmlns="http://www.w3.org/2000/svg"  width="300.000000pt" height="300.000000pt" viewBox="0 0 300.000000 300.000000"  preserveAspectRatio="xMidYMid meet">  <g transform="translate(0.000000,300.000000) scale(0.050000,-0.050000)" fill="#2f48c9" stroke="none"> <path d="M771 4235 c-127 -110 -159 -285 -167 -908 l-7 -563 -49 -46 c-75 -70 -67 -183 20 -270 116 -116 125 -105 226 262 58 216 94 230 566 230 518 0 493 16 608 -386 37 -130 72 -240 76 -245 5 -5 490 -11 1077 -14 l1069 -5 71 240 c99 335 96 329 166 371 102 62 823 59 903 -4 91 -72 118 -162 129 -437 l11 -250 83 4 c220 9 297 117 297 416 l0 220 -135 6 -135 6 0 189 c0 148 -6 189 -28 189 -15 0 -41 21 -58 47 -26 40 -57 49 -227 70 -776 93 -1238 167 -1269 203 -18 21 -107 170 -199 331 -232 410 -127 388 -1823 389 l-1154 0 -51 -45z m1192 -208 c52 -47 55 -494 4 -550 -57 -63 -992 -56 -1036 7 -44 64 -44 468 0 532 42 60 967 70 1032 11z m1542 -2 c132 -150 242 -482 182 -548 -48 -54 -1372 -57 -1430 -4 -52 47 -55 494 -4 550 50 55 1203 57 1252 2z m-255 -1227 c484 -23 889 -50 899 -60 57 -55 -49 -57 -880 -18 -1087 51 -1149 56 -1149 92 0 38 71 37 1130 -14z"/> <path d="M1005 3987 c-41 -17 -35 -459 7 -475 92 -35 886 -12 907 27 27 50 27 372 0 422 -20 38 -828 60 -914 26z"/> <path d="M2304 3976 c-33 -33 -33 -419 0 -452 38 -38 1303 -34 1335 4 24 29 -154 422 -206 457 -41 26 -1102 18 -1129 -9z"/> <path d="M191 3829 c-44 -45 -47 -1011 -3 -1047 18 -15 84 -22 175 -18 l147 6 5 529 c4 409 0 532 -20 544 -47 30 -270 20 -304 -14z"/> <path d="M1187 2744 c-596 -213 -491 -1062 136 -1100 348 -21 606 226 602 578 -3 369 -394 645 -738 522z m329 -297 c170 -109 162 -405 -14 -496 -134 -69 -326 -18 -390 105 -140 271 152 554 404 391z"/> <path d="M1238 2322 c-139 -139 15 -360 192 -276 120 57 144 183 52 276 -79 78 -165 78 -244 0z"/> <path d="M4750 2762 c-662 -172 -545 -1123 139 -1122 469 1 723 563 421 932 -121 147 -384 236 -560 190z m245 -301 c274 -125 187 -541 -113 -541 -270 0 -397 303 -204 488 97 93 192 109 317 53z"/> <path d="M4758 2322 c-69 -70 -76 -154 -18 -228 127 -161 385 2 291 184 -61 117 -180 136 -273 44z"/> </g> </svg> 