 <svg  version="1.0" xmlns="http://www.w3.org/2000/svg"  width="300.000000pt" height="300.000000pt" viewBox="0 0 300.000000 300.000000"  preserveAspectRatio="xMidYMid meet">  <g transform="translate(0.000000,300.000000) scale(0.050000,-0.050000)" fill="#2f48c9" stroke="none"> <path d="M1682 5027 c-235 -83 -343 -200 -518 -567 -76 -159 -157 -312 -180 -340 l-43 -50 0 94 c-1 140 -35 156 -331 156 -324 0 -330 -4 -330 -238 0 -211 11 -226 200 -260 72 -14 146 -29 165 -34 26 -8 -20 -55 -179 -184 -451 -366 -454 -377 -462 -1523 -6 -976 -7 -973 99 -1074 l60 -57 467 -6 c607 -8 664 19 686 318 l9 138 1675 0 1675 0 9 -138 c22 -299 79 -326 686 -318 l467 6 60 57 c106 101 105 98 99 1074 -8 1146 -11 1157 -462 1523 -159 129 -205 176 -179 184 19 5 94 20 165 34 189 34 200 49 200 260 0 234 -6 238 -330 238 -295 0 -330 -16 -330 -154 0 -139 -40 -88 -220 283 -172 355 -245 445 -440 545 l-110 56 -1260 4 c-1099 4 -1271 1 -1348 -27z m2570 -177 c175 -51 258 -144 401 -446 70 -147 127 -271 127 -276 0 -4 -801 -8 -1780 -8 -979 0 -1780 4 -1780 8 0 5 57 129 127 276 141 298 226 394 392 445 138 43 2370 44 2513 1z m-3512 -811 c0 -68 -6 -80 -35 -72 -19 6 -66 16 -105 23 -127 24 -140 31 -140 81 0 47 5 49 140 49 l140 0 0 -81z m4800 32 c0 -51 -24 -62 -215 -101 -65 -13 -65 -13 -65 68 l0 82 140 0 c135 0 140 -2 140 -49z m-440 -334 c110 -111 198 -204 195 -207 -3 -2 -149 -60 -325 -130 -309 -121 -325 -130 -460 -263 l-141 -137 -559 0 -559 0 -125 -124 -126 -125 -126 125 -125 124 -559 0 -559 0 -141 137 c-127 125 -161 146 -370 229 -126 50 -272 109 -324 131 l-94 41 194 199 194 199 1904 2 1905 2 201 -203z m-4210 -480 c198 -79 363 -146 367 -148 3 -3 -9 -29 -28 -57 l-34 -52 -393 0 c-421 0 -464 9 -501 107 -18 50 63 183 154 250 70 53 22 64 435 -100z m4652 102 c92 -66 176 -201 157 -252 -37 -98 -80 -107 -501 -107 l-393 0 -34 52 c-19 28 -31 54 -28 56 14 11 708 288 724 290 9 1 43 -17 75 -39z m-3431 -539 l560 0 139 -140 c100 -101 153 -140 190 -140 37 0 90 39 190 140 l139 140 560 0 559 0 72 70 72 70 68 -70 68 -70 461 0 c429 0 466 3 528 41 87 53 92 47 100 -150 l7 -166 -297 -9 c-394 -12 -597 -97 -583 -243 7 -74 94 -99 154 -45 64 58 180 92 314 92 l133 0 -13 -85 c-23 -151 -94 -195 -321 -195 -200 0 -267 -33 -236 -117 20 -56 48 -62 254 -63 319 0 459 100 485 348 11 102 16 112 61 112 l49 0 -7 -276 c-11 -446 -34 -464 -605 -464 l-398 0 -153 147 c-239 228 -119 213 -1700 213 l-1351 0 -102 -48 c-57 -26 -166 -107 -243 -180 l-140 -132 -367 0 c-537 0 -564 22 -575 464 l-7 276 49 0 c45 0 50 -10 61 -112 26 -248 166 -348 485 -348 206 1 234 7 254 63 31 84 -36 117 -236 117 -227 0 -298 44 -321 195 l-13 85 133 0 c134 0 250 -34 314 -92 60 -54 147 -29 154 45 14 146 -189 231 -583 243 l-297 9 7 166 c8 197 13 203 100 150 62 -38 99 -41 528 -41 l461 0 68 70 68 70 72 -70 72 -70 559 0z m2259 -1080 c46 -22 104 -63 130 -90 l47 -50 -1567 0 -1567 0 49 53 c120 130 73 126 1517 127 1270 0 1311 -1 1391 -40z m-3635 -336 l385 -8 0 -117 c0 -159 0 -159 -469 -159 -478 0 -471 -3 -471 230 l0 151 85 -45 c78 -41 117 -46 470 -52z m5085 -54 c0 -233 7 -230 -471 -230 -469 0 -469 0 -469 159 l0 117 385 8 c351 6 392 11 465 50 44 25 82 45 85 45 3 1 5 -66 5 -149z"/> </g> </svg> 